<svg xmlns="http://www.w3.org/2000/svg" width="120" height="120" viewBox="0 0 120 120">
  <g fill="#222" fill-rule="evenodd">
    <path d="M69.8333012,61.4149456 L90.1062853,61.4151583 C92.867709,61.4151583 95.1062853,63.6537346 95.1062853,66.4151583 C95.1062853,66.4402607 95.1060963,66.4653627 95.1057182,66.4904622 L94.0617675,135.798413 C94.0368139,137.45508 92.6735917,138.777844 91.0169254,138.752891 C90.9937386,138.752541 90.9705567,138.751923 90.9473843,138.751036 L70.6038544,137.972507 C67.38178,137.849201 64.8333012,135.201329 64.8333012,131.976896 L64.8332004,66.4148449 C64.8332004,63.6534211 67.0717767,61.4148449 69.8332004,61.4148449 C69.833234,61.4148449 69.8332676,61.4148449 69.8333012,61.4148449 Z" transform="rotate(-45 79.962 100.027)"/>
    <path d="M5,0 L24.5928415,-8.8817842e-16 C27.3542653,1.05719325e-15 29.5928415,2.23857625 29.5928415,5 L29.5928415,43.5259205 L5.11088886,67.7688544 C3.93358303,68.9346661 2.03411094,68.9253483 0.868299219,67.7480425 C0.312043989,67.186303 5.7349992e-15,66.4277048 1.77635684e-15,65.6371536 L0,5 C-3.38176876e-16,2.23857625 2.23857625,5.07265313e-16 5,0 Z"/>
    <path d="M40.3606522,-31.221066 L61.3606522,-31.221066 C63.0175065,-31.221066 64.3606522,-29.8779202 64.3606522,-28.221066 L64.3606522,127.938263 C64.3606522,129.595117 63.0175065,130.938263 61.3606522,130.938263 L40.3606522,130.938263 C37.0469437,130.938263 34.3606522,128.251972 34.3606522,124.938263 L34.3606522,-25.221066 C34.3606522,-28.5347745 37.0469437,-31.221066 40.3606522,-31.221066 Z" transform="rotate(45 49.36 49.859)"/>
  </g>
</svg>
